# xmcd
#
# Track frame offsets:
#	150
#	9357
#	26272
#	41308
#	53852
#	67578
#	80120
#	92330
#
# Disc length: 1385 seconds
#
# Revision: 1
# Processed by: cddbd v1.4PL0 Copyright (c) Steve Scherf et al.
# Submitted via: CDmax 2.0
#
DISCID=4b056708
DTITLE=Chris and Linda Fretwell - ATTITUDE
DYEAR=1996
DGENRE=Country
TTITLE0=Country Girl
TTITLE1=Santa Never Came
TTITLE2=Lucky's My Friend
TTITLE3=Take a Chance
TTITLE4=Secrets of Love
TTITLE5=Attitude
TTITLE6=Travellin' Man
TTITLE7=Mother
EXTD=
EXTT0=
EXTT1=
EXTT2=
EXTT3=
EXTT4=
EXTT5=
EXTT6=
EXTT7=
PLAYORDER=
